HIERARCHY
ROOT Hips
{
	OFFSET 0.000000 0.000000 0.000000
	CHANNELS 6 Xposition Yposition Zposition Zrotation Yrotation Xrotation 
	JOINT LeftUpLeg_virtual
	{
		OFFSET 0.000000 0.000000 0.000000
		CHANNELS 3 Zrotation Yrotation Xrotation
		JOINT LeftUpLeg
		{
			OFFSET 10.205400 -3.823500 0.155100
			CHANNELS 3 Zrotation Yrotation Xrotation
			JOINT LeftLeg
			{
				OFFSET 0.708757 -12.982077 0.567790
				CHANNELS 3 Zrotation Yrotation Xrotation
				JOINT LeftFoot
				{
					OFFSET -0.708756 -10.717838 -2.184338
					CHANNELS 3 Zrotation Yrotation Xrotation
					JOINT LeftToeBase
					{
						OFFSET 0.108149 -7.191104 7.560241
						CHANNELS 3 Zrotation Yrotation Xrotation
						End Site
						{
							OFFSET 0.000000 0.000000 0.000000
						}
					}
				}
			}
		}
	}
	JOINT RightUpLeg_virtual
	{
		OFFSET 0.000000 0.000000 0.000000
		CHANNELS 3 Zrotation Yrotation Xrotation
		JOINT RightUpLeg
		{
			OFFSET -10.205400 -3.823500 0.005500
			CHANNELS 3 Zrotation Yrotation Xrotation
			JOINT RightLeg
			{
				OFFSET -0.708756 -12.982134 0.610632
				CHANNELS 3 Zrotation Yrotation Xrotation
				JOINT RightFoot
				{
					OFFSET 0.708754 -10.717769 -1.945823
					CHANNELS 3 Zrotation Yrotation Xrotation
					JOINT RightToeBase
					{
						OFFSET -0.108140 -7.191069 7.372968
						CHANNELS 3 Zrotation Yrotation Xrotation
						End Site
						{
							OFFSET 0.000000 0.000000 0.000000
						}
					}
				}
			}
		}
	}
	JOINT Spine_virtual
	{
		OFFSET 0.000000 0.000000 0.000000
		CHANNELS 3 Zrotation Yrotation Xrotation
		JOINT Spine
		{
			OFFSET 0.000000 6.876099 0.125700
			CHANNELS 3 Zrotation Yrotation Xrotation
			JOINT Spine1
			{
				OFFSET 0.000000 8.022060 0.146608
				CHANNELS 3 Zrotation Yrotation Xrotation
				JOINT Spine2
				{
					OFFSET 0.000000 9.168068 0.167552
					CHANNELS 3 Zrotation Yrotation Xrotation
					JOINT Neck_virtual
					{
						OFFSET 0.000000 0.000000 0.000000
						CHANNELS 3 Zrotation Yrotation Xrotation
						JOINT Neck
						{
							OFFSET 0.000000 10.314075 0.188496
							CHANNELS 3 Zrotation Yrotation Xrotation
							JOINT Head
							{
								OFFSET 0.000000 7.643700 -2.377400
								CHANNELS 3 Zrotation Yrotation Xrotation
								End Site
								{
									OFFSET 0.000000 0.000000 0.000000
								}
							}
						}
					}
					JOINT LeftShoulder_virtual
					{
						OFFSET 0.000000 0.000000 0.000000
						CHANNELS 3 Zrotation Yrotation Xrotation
						JOINT LeftShoulder
						{
							OFFSET 4.392200 8.824978 0.174984
							CHANNELS 3 Zrotation Yrotation Xrotation
							JOINT LeftArm
							{
								OFFSET 8.771219 -2.981674 -0.026999
								CHANNELS 3 Zrotation Yrotation Xrotation
								JOINT LeftForeArm
								{
									OFFSET 8.512804 0.000000 -0.000000
									CHANNELS 3 Zrotation Yrotation Xrotation
									JOINT LeftHand
									{
										OFFSET 18.484802 0.000000 -0.000000
										CHANNELS 3 Zrotation Yrotation Xrotation
										End Site
										{
											OFFSET 0.000000 0.000000 0.000000
										}
									}
								}
							}
						}
					}
					JOINT RightShoulder_virtual
					{
						OFFSET 0.000000 0.000000 0.000000
						CHANNELS 3 Zrotation Yrotation Xrotation
						JOINT RightShoulder
						{
							OFFSET -4.392200 8.824993 0.141379
							CHANNELS 3 Zrotation Yrotation Xrotation
							JOINT RightArm
							{
								OFFSET -8.771282 -2.981682 -0.094208
								CHANNELS 3 Zrotation Yrotation Xrotation
								JOINT RightForeArm
								{
									OFFSET -8.494598 0.000000 0.000000
									CHANNELS 3 Zrotation Yrotation Xrotation
									JOINT RightHand
									{
										OFFSET -18.483803 0.000000 0.000001
										CHANNELS 3 Zrotation Yrotation Xrotation
										End Site
										{
											OFFSET 0.000000 0.000000 0.000000
										}
									}
								}
							}
						}
					}
				}
			}
		}
	}
}
MOTION
Frames: 10
Frame Time: 0.033333
-1.697971 36.121262 -4.066419 -179.566452 8.794745 -179.363814 -1.238770 0.103656 34.869195 -8.667175 3.213764 -74.448502 3.046375 7.110123 40.960665 -10.233884 1.788562 12.501627 0.000000 0.000000 0.000000 3.285719 -1.074803 32.231113 -5.153118 -7.737560 -57.915107 -1.220588 1.517127 33.378011 7.318077 2.378695 17.264133 0.000000 0.000000 0.000000 5.960451 -0.927216 46.863974 -8.358575 -4.318964 32.526529 0.162573 0.155915 3.750785 0.020062 0.050208 0.052321 0.507612 1.354512 6.136839 -3.249419 -0.634566 -17.901583 0.000000 0.000000 0.000000 0.819584 2.627481 1.781877 -0.461273 -25.016601 -4.769259 -52.572287 -31.602445 15.138018 7.048360 -58.130504 -2.444948 0.000000 0.000000 0.000000 -2.314501 3.630290 1.490836 5.520364 21.317797 0.296301 35.629286 25.932391 -8.116932 -9.063670 63.299195 -8.672343 0.000000 0.000000 0.000000 
-1.581712 36.156818 -4.193437 -179.647075 8.536808 -179.138336 -0.980157 0.576963 31.868037 -7.866540 2.707620 -71.533070 3.468365 6.918563 41.689897 -11.111631 1.660212 12.768241 0.000000 0.000000 0.000000 3.131386 -0.570669 28.853980 -4.533856 -8.028235 -53.994356 -1.643151 1.526377 33.737019 7.291882 2.240783 17.934658 0.000000 0.000000 0.000000 6.005717 -0.295130 42.347128 -8.911159 -4.485001 30.777099 0.002292 0.411213 4.253176 -0.003972 0.097564 0.018639 0.332407 1.463575 6.862611 -3.740312 -0.383606 -17.578352 0.000000 0.000000 0.000000 0.663275 2.628590 2.531487 -0.585420 -24.890249 -4.339376 -52.950027 -30.417530 16.292981 7.345102 -59.166268 -2.165089 0.000000 0.000000 0.000000 -2.356027 3.756070 2.268198 6.003216 20.112711 1.165055 36.639276 24.329848 -6.074224 -9.008353 64.179674 -9.109347 0.000000 0.000000 0.000000 
-1.486439 36.241188 -4.312840 -179.674027 8.077485 -179.005693 -0.926958 0.923651 28.932722 -7.035794 2.168377 -68.485890 3.944684 6.764682 41.991060 -11.826963 1.581952 12.912823 0.000000 0.000000 0.000000 2.951940 -0.064015 25.660934 -4.205207 -8.409837 -49.845197 -1.976671 1.619971 33.811458 7.341915 2.319126 17.692500 0.000000 0.000000 0.000000 6.029239 0.175912 37.852765 -9.455505 -4.783740 29.120221 -0.203513 0.540795 4.722656 0.004025 0.071362 0.043559 0.157408 1.635533 7.302419 -4.208855 -0.102043 -17.307928 0.000000 0.000000 0.000000 0.537503 2.822528 3.131287 -0.756464 -24.370291 -4.000298 -52.921743 -29.057776 17.589322 7.557912 -60.156222 -1.832427 0.000000 0.000000 0.000000 -2.417180 3.938168 2.895647 6.362034 19.141931 1.831995 37.715847 22.890822 -3.895189 -8.980456 64.903394 -9.625400 0.000000 0.000000 0.000000 
-1.396256 36.360130 -4.448846 -179.765866 7.604779 -179.003125 -0.939917 0.961681 26.218183 -6.103715 1.466100 -65.244125 4.393428 6.617981 41.849665 -12.452943 1.531228 12.906249 0.000000 0.000000 0.000000 2.649414 0.247271 22.663835 -4.070387 -8.656752 -45.436939 -2.164071 1.708218 33.426495 7.603717 2.654078 16.862192 0.000000 0.000000 0.000000 5.770257 0.657796 33.658899 -9.774627 -5.101137 27.442628 -0.285287 0.619875 5.087515 -0.000752 0.056134 0.064605 -0.000110 1.932543 7.623989 -4.731126 0.095401 -16.979341 0.000000 0.000000 0.000000 0.410828 2.937171 3.583275 -0.962730 -23.672864 -3.611374 -52.490376 -27.388321 18.833827 7.779176 -61.080217 -1.506854 0.000000 0.000000 0.000000 -2.480754 4.018248 3.411004 6.549752 18.179059 2.248948 38.763311 21.377801 -1.515788 -9.186417 65.709814 -10.345448 0.000000 0.000000 0.000000 
-1.290422 36.498413 -4.632933 -179.907565 7.059460 -179.091644 -0.952945 0.734952 23.777319 -5.149644 0.511507 -61.795372 4.832480 6.436465 41.367382 -12.931848 1.493778 12.696046 0.000000 0.000000 0.000000 2.189034 0.325007 19.929049 -4.003499 -8.711597 -40.919271 -2.246609 1.749015 32.585029 8.020550 3.117861 15.712818 0.000000 0.000000 0.000000 5.295653 1.026122 29.837620 -9.981860 -5.344318 25.793171 -0.268550 0.627143 5.337950 -0.018321 0.007532 0.071606 -0.078639 1.990027 7.899812 -5.120511 0.349342 -16.718264 0.000000 0.000000 0.000000 0.374711 3.054783 4.066796 -1.151099 -22.916417 -3.307375 -51.753614 -25.747861 19.968832 8.256812 -61.903692 -1.473614 0.000000 0.000000 0.000000 -2.543037 4.084077 3.794831 6.764416 17.196308 2.584856 39.562115 19.845574 0.686077 -8.942242 66.486933 -10.592163 0.000000 0.000000 0.000000 
-1.189348 36.631130 -4.904901 179.941457 6.595667 -179.180068 -0.858143 0.260738 21.806707 -4.330240 -0.792475 -58.319352 5.319854 6.256729 40.613025 -13.070599 1.540586 12.182212 0.000000 0.000000 0.000000 1.660622 0.147066 17.533902 -3.943789 -8.589543 -36.629717 -2.338876 1.778514 31.423767 8.440999 3.555185 14.356972 0.000000 0.000000 0.000000 4.696255 1.298036 26.534595 -10.040210 -5.423540 24.117564 -0.225247 0.576234 5.543635 -0.022133 -0.066534 0.105291 -0.150237 1.839091 8.048155 -5.709078 0.258121 -16.434186 0.000000 0.000000 0.000000 0.397086 2.865836 4.422581 -1.514038 -22.059911 -3.126960 -50.947313 -24.257198 20.909386 8.659943 -62.717440 -1.446360 0.000000 0.000000 0.000000 -2.505928 4.021568 4.003465 6.937980 16.312905 2.839425 40.166092 18.425429 2.656394 -9.155127 67.376333 -11.201678 0.000000 0.000000 0.000000 
-1.086041 36.743301 -5.215152 179.886952 6.331088 -179.184959 -0.660267 -0.434544 20.328236 -3.749843 -2.186465 -55.158217 5.825665 5.949395 39.661741 -12.921298 1.621849 11.343314 0.000000 0.000000 0.000000 1.281085 -0.392099 15.701005 -3.867376 -8.396684 -32.818075 -2.501602 1.846331 30.307875 8.749718 3.893872 13.051324 0.000000 0.000000 0.000000 3.678437 1.109390 23.680611 -10.033946 -5.330962 22.496850 -0.262804 0.624257 5.705321 0.014170 -0.032097 0.072029 -0.146998 1.901282 8.117972 -5.940624 0.419378 -16.069094 0.000000 0.000000 0.000000 0.490666 3.007235 4.730332 -1.799158 -21.367229 -3.025130 -50.214509 -23.207858 22.005906 8.803468 -63.500624 -1.191178 0.000000 0.000000 0.000000 -2.530486 4.104498 4.218672 7.243137 15.625292 3.031566 40.460815 17.114898 4.305719 -9.483368 68.077896 -11.831593 0.000000 0.000000 0.000000 
-0.955235 36.831570 -5.464416 179.847296 6.229390 -179.305621 -0.673261 -0.972906 19.216626 -3.237337 -3.589339 -52.502616 6.410527 5.332187 38.713540 -13.064188 2.163094 10.253384 0.000000 0.000000 0.000000 0.991832 -1.112230 14.307819 -3.743140 -7.973273 -30.065642 -2.779497 1.797374 29.184514 9.170197 4.092397 12.362864 0.000000 0.000000 0.000000 2.897900 1.314921 21.590742 -9.760281 -5.169306 20.854434 -0.180901 0.586045 5.899755 -0.074078 -0.064468 0.126819 -0.162221 1.796716 8.182187 -6.232998 0.470024 -15.852866 0.000000 0.000000 0.000000 0.437648 2.930694 4.999611 -2.073911 -20.884758 -2.976332 -49.495174 -22.461121 22.993823 9.006158 -64.474493 -1.126242 0.000000 0.000000 0.000000 -2.517759 3.926804 4.389661 7.723808 14.913933 3.077814 40.599662 15.782855 5.578484 -9.406255 68.695297 -11.991162 0.000000 0.000000 0.000000 
-0.826924 36.905880 -5.619509 179.468657 6.441941 -179.377543 -1.133451 -1.179197 18.441815 -2.761394 -3.974817 -50.703493 6.510295 5.308047 38.176673 -12.827720 2.077353 8.997970 0.000000 0.000000 0.000000 0.685693 -1.587775 13.892653 -3.680170 -7.280634 -28.811763 -3.177665 1.905814 28.213053 9.405425 4.178231 12.090271 0.000000 0.000000 0.000000 1.923726 1.382199 19.752207 -9.611655 -4.966570 19.279310 -0.338625 0.570593 6.125826 0.055781 -0.059999 0.088544 -0.240768 1.898295 8.180384 -6.364366 0.496690 -15.538812 0.000000 0.000000 0.000000 0.410867 2.899857 5.146279 -2.377792 -20.332157 -2.882000 -49.042869 -21.645624 24.100432 9.606762 -65.401616 -1.555697 0.000000 0.000000 0.000000 -2.566664 4.006737 4.578651 8.353452 14.252554 3.061787 40.693973 14.465400 6.789529 -9.357700 69.167919 -12.086678 0.000000 0.000000 0.000000 
-0.715014 36.961231 -5.736566 179.354334 6.912059 -179.488041 -1.473775 -0.988536 17.909586 -2.289013 -4.598615 -49.310421 6.781238 5.001602 37.884689 -12.321330 2.036294 7.986492 0.000000 0.000000 0.000000 0.309902 -1.990677 12.525076 -3.573201 -7.012081 -25.982378 -3.352133 1.164099 25.914383 10.019444 4.382572 12.341456 0.000000 0.000000 0.000000 1.310923 1.638911 18.318957 -9.287291 -4.722500 17.761953 -0.479579 0.546820 6.207093 0.083127 -0.050901 0.051742 -0.399026 1.969420 8.263905 -6.454380 0.534431 -14.954445 0.000000 0.000000 0.000000 0.307954 2.885687 5.301855 -2.547578 -19.808296 -2.855936 -48.461920 -20.771404 24.846043 9.998979 -66.479925 -1.881824 0.000000 0.000000 0.000000 -2.704012 3.957254 4.825067 9.074298 13.689236 3.083156 40.719928 13.232821 7.905067 -9.528424 69.586234 -12.305359 0.000000 0.000000 0.000000 
